<svg width="120" height="40" viewBox="0 0 120 40" fill="none" xmlns="http://www.w3.org/2000/svg"><rect width="120" height="40" rx="4" fill="#F9F9F9"/><path d="M14 20C14 17.2386 16.2386 15 19 15H25C27.7614 15 30 17.2386 30 20V20C30 22.7614 27.7614 25 25 25H19C16.2386 25 14 22.7614 14 20V20Z" fill="#4F46E5"/><path d="M35.328 28V13H37.488V19.32H45.696V13H47.856V28H45.696V21.144H37.488V28H35.328ZM50.6978 28V17H52.8578V28H50.6978ZM51.7778 15.16C51.3378 15.16 50.9778 15.016 50.6978 14.728C50.4178 14.44 50.2778 14.088 50.2778 13.672C50.2778 13.256 50.4178 12.904 50.6978 12.616C50.9778 12.328 51.3378 12.184 51.7778 12.184C52.2178 12.184 52.5778 12.328 52.8578 12.616C53.1378 12.904 53.2778 13.256 53.2778 13.672C53.2778 14.088 53.1378 14.44 52.8578 14.728C52.5778 15.016 52.2178 15.16 51.7778 15.16ZM61.7434 28.24C60.4634 28.24 59.3034 27.952 58.2634 27.376C57.2234 26.8 56.4074 26.008 55.8154 25C55.2234 23.992 54.9274 22.856 54.9274 21.592C54.9274 20.328 55.2234 19.192 55.8154 18.184C56.4074 17.176 57.2234 16.384 58.2634 15.808C59.3034 15.232 60.4634 14.944 61.7434 14.944C63.0474 14.944 64.1994 15.248 65.1994 15.856C66.1994 16.464 66.9194 17.296 67.3594 18.352L65.3994 19.12C65.0954 18.4 64.6474 17.856 64.0554 17.488C63.4634 17.12 62.7274 16.936 61.8474 16.936C61.0314 16.936 60.2874 17.136 59.6154 17.536C58.9434 17.936 58.4074 18.488 58.0074 19.192C57.6074 19.896 57.4074 20.696 57.4074 21.592C57.4074 22.488 57.6074 23.288 58.0074 23.992C58.4074 24.696 58.9434 25.248 59.6154 25.648C60.2874 26.048 61.0314 26.248 61.8474 26.248C62.7274 26.248 63.4634 26.064 64.0554 25.696C64.6474 25.328 65.0954 24.776 65.3994 24.04L67.3594 24.832C66.9194 25.888 66.1994 26.72 65.1994 27.328C64.1994 27.936 63.0474 28.24 61.7434 28.24ZM77.3235 28V17H79.4835V28H77.3235ZM78.4035 15.16C77.9635 15.16 77.6035 15.016 77.3235 14.728C77.0435 14.44 76.9035 14.088 76.9035 13.672C76.9035 13.256 77.0435 12.904 77.3235 12.616C77.6035 12.328 77.9635 12.184 78.4035 12.184C78.8435 12.184 79.2035 12.328 79.4835 12.616C79.7635 12.904 79.9035 13.256 79.9035 13.672C79.9035 14.088 79.7635 14.44 79.4835 14.728C79.2035 15.016 78.8435 15.16 78.4035 15.16ZM90.0891 17L85.6731 28H83.4171L79.0011 17H81.6091L84.7691 25.6L87.8331 17H90.0891ZM97.4878 28.24C96.0318 28.24 94.7758 27.952 93.7198 27.376C92.6638 26.8 91.8638 26.008 91.3198 25C90.7758 23.992 90.5038 22.856 90.5038 21.592C90.5038 20.328 90.7758 19.192 91.3198 18.184C91.8638 17.176 92.6638 16.384 93.7198 15.808C94.7758 15.232 96.0318 14.944 97.4878 14.944C98.9438 14.944 100.192 15.232 101.232 15.808C102.288 16.384 103.096 17.176 103.656 18.184C104.216 19.192 104.496 20.328 104.496 21.592C104.496 22.856 104.216 23.992 103.656 25C103.096 26.008 102.288 26.8 101.232 27.376C100.192 27.952 98.9438 28.24 97.4878 28.24ZM97.4878 26.248C98.3038 26.248 99.0318 26.048 99.6718 25.648C100.312 25.248 100.816 24.696 101.184 23.992C101.552 23.288 101.736 22.488 101.736 21.592C101.736 20.696 101.552 19.896 101.184 19.192C100.816 18.488 100.312 17.936 99.6718 17.536C99.0318 17.136 98.3038 16.936 97.4878 16.936C96.6718 16.936 95.9358 17.136 95.2798 17.536C94.6398 17.936 94.1358 18.488 93.7678 19.192C93.3998 19.896 93.2158 20.696 93.2158 21.592C93.2158 22.488 93.3998 23.288 93.7678 23.992C94.1358 24.696 94.6398 25.248 95.2798 25.648C95.9358 26.048 96.6718 26.248 97.4878 26.248Z" fill="#4F46E5"/></svg>
